<svg xmlns="http://www.w3.org/2000/svg" width="24" height="24" viewBox="0 0 24 24">
    <g fill="#3B494A" fill-rule="nonzero">
        <path d="M15.773 6.043H8.227c-1.204 0-2.184.98-2.184 2.184v7.546c0 1.204.98 2.184 2.184 2.184h7.546c1.204 0 2.184-.98 2.184-2.184V8.227c0-1.204-.98-2.184-2.184-2.184zM12 15.923A3.927 3.927 0 0 1 8.078 12 3.927 3.927 0 0 1 12 8.078 3.927 3.927 0 0 1 15.922 12 3.927 3.927 0 0 1 12 15.922zm4.048-7.034a.93.93 0 0 1 0-1.856.93.93 0 0 1 0 1.856z"/>
        <path d="M12 9.735A2.268 2.268 0 0 0 9.735 12 2.268 2.268 0 0 0 12 14.265 2.268 2.268 0 0 0 14.265 12 2.267 2.267 0 0 0 12 9.735z"/>
        <path d="M1 6v12a5 5 0 0 0 5 5h12a5 5 0 0 0 5-5V6a5 5 0 0 0-5-5H6a5 5 0 0 0-5 5zm18.614 9.773a3.846 3.846 0 0 1-3.841 3.841H8.227a3.846 3.846 0 0 1-3.841-3.841V8.227a3.846 3.846 0 0 1 3.841-3.841h7.546a3.846 3.846 0 0 1 3.841 3.841v7.546z"/>
    </g>
</svg>
